<?xml version="1.0" standalone="no"?>
<!DOCTYPE svg PUBLIC "-//W3C//DTD SVG 20010904//EN"
 "http://www.w3.org/TR/2001/REC-SVG-20010904/DTD/svg10.dtd">
<svg version="1.0" xmlns="http://www.w3.org/2000/svg"
 width="1000.000000pt" height="1000.000000pt" viewBox="0 0 1000.000000 1000.000000"
 preserveAspectRatio="xMidYMid meet">
<metadata>
Created by potrace 1.11, written by Peter Selinger 2001-2013
</metadata>
<g transform="translate(0.000000,1000.000000) scale(0.100000,-0.100000)"
fill="#000000" stroke="none">
<path d="M6599 8811 c-14 -5 -37 -15 -50 -24 -13 -9 -78 -36 -144 -61 -134
-51 -171 -80 -161 -127 3 -17 0 -31 -7 -36 -6 -4 -83 -35 -171 -69 -106 -40
-163 -67 -170 -80 -5 -10 -12 -26 -16 -34 -4 -8 -18 -15 -31 -16 -68 -2 -95
-14 -112 -50 -13 -27 -22 -34 -36 -29 -22 7 -14 23 -93 -200 -33 -93 -61 -171
-63 -173 -1 -1 -37 9 -80 23 -43 14 -81 25 -85 25 -4 0 -34 -73 -65 -162 -32
-90 -69 -187 -83 -216 -13 -30 -20 -57 -16 -62 5 -4 43 -20 84 -35 87 -32 99
-41 73 -49 -28 -9 -45 -50 -33 -80 8 -22 3 -27 -48 -61 -98 -65 -214 -160
-296 -243 -65 -66 -81 -78 -92 -67 -17 16 -130 36 -167 28 -15 -3 -34 0 -42 7
-20 16 -43 6 -55 -25 -11 -29 -26 -31 -76 -10 -35 14 -42 13 -143 -19 -58 -19
-113 -37 -121 -40 -10 -4 -19 3 -27 22 -17 37 -62 62 -113 62 -53 0 -71 -18
-210 -213 -58 -81 -107 -147 -110 -147 -3 0 -17 37 -31 83 l-25 82 -39 -2
c-42 -3 -185 -78 -185 -98 0 -7 9 -38 20 -69 18 -53 18 -57 2 -54 -11 2 -18
14 -20 33 -6 54 -54 84 -81 51 -6 -7 -33 -19 -59 -26 -57 -16 -80 -34 -99 -79
-16 -37 -25 -33 -42 20 -6 19 -27 51 -46 69 -29 28 -43 58 -76 160 -23 69 -44
145 -48 170 -5 35 -10 45 -25 45 -30 0 -43 -30 -24 -52 22 -24 98 -261 98
-305 0 -20 -6 -48 -14 -62 l-14 -27 -22 35 c-23 39 -44 46 -58 20 -6 -11 -11
-13 -16 -5 -4 6 -18 8 -31 5 -19 -5 -27 -1 -35 17 -10 23 -75 228 -329 1039
-62 195 -143 452 -182 571 -38 120 -69 219 -69 222 0 2 44 4 98 3 93 -1 97 0
100 21 2 16 11 23 35 25 29 3 32 6 35 42 4 42 -8 56 -45 56 -15 0 -21 5 -17
13 12 33 -25 42 -199 45 -93 2 -173 0 -177 -5 -12 -12 -22 -156 -12 -171 5 -8
27 -16 49 -19 l40 -5 88 -282 c48 -154 118 -375 155 -491 38 -115 103 -320
145 -455 43 -135 80 -250 82 -257 3 -7 -3 -11 -14 -11 -30 3 -162 -44 -179
-63 -15 -16 -9 -40 75 -306 135 -429 168 -524 184 -541 14 -13 24 -12 99 9 45
13 93 33 106 44 22 20 23 21 7 65 -31 87 6 95 64 13 49 -67 51 -80 11 -56 -28
16 -31 16 -47 0 -16 -16 -15 -19 32 -61 47 -41 52 -43 72 -30 50 32 85 9 156
-103 7 -11 -45 -103 -58 -103 -3 0 -40 12 -82 27 -70 25 -92 28 -218 28 -117
0 -151 -4 -210 -22 -207 -66 -371 -233 -443 -451 -35 -108 -37 -284 -4 -387
35 -111 96 -211 176 -290 82 -80 153 -125 258 -163 66 -24 86 -27 215 -27 77
0 139 -3 136 -7 -2 -5 -10 -8 -17 -8 -25 0 -174 -100 -215 -145 -24 -26 -59
-80 -77 -121 -19 -41 -39 -74 -44 -74 -5 0 -22 24 -36 53 -71 140 -155 230
-262 280 -54 25 -83 32 -153 35 -112 6 -189 -8 -353 -63 -77 -25 -142 -42
-154 -38 -13 3 -37 31 -58 65 -84 137 -200 219 -310 219 -139 0 -283 -139
-314 -303 -11 -56 -12 -160 -2 -196 7 -22 8 -22 82 24 108 68 169 94 218 94
101 0 173 -85 201 -236 7 -38 11 -375 11 -989 l0 -932 335 62 c184 34 337 64
340 66 2 3 -17 39 -43 80 -53 81 -108 135 -148 145 -43 11 -118 -3 -189 -35
-38 -17 -70 -29 -72 -27 -3 2 -11 89 -19 192 -11 141 -14 325 -12 734 l3 545
27 51 c79 150 264 216 478 170 133 -28 269 -107 305 -176 22 -43 34 -265 50
-965 8 -357 17 -665 20 -683 5 -25 10 -32 23 -28 9 2 103 24 207 47 164 37
194 47 218 71 24 24 28 33 22 61 -24 115 -134 167 -250 117 -43 -18 -46 -19
-53 -2 -4 9 -7 316 -7 682 l0 665 29 53 c52 94 140 152 262 173 78 13 285 5
349 -14 57 -17 119 -82 133 -139 9 -34 12 -268 12 -837 0 -563 3 -791 11 -791
25 0 545 114 553 121 5 5 -5 36 -23 74 -54 109 -130 142 -258 112 l-62 -14
-11 51 c-7 33 -10 187 -8 446 2 217 3 541 3 720 0 324 0 325 -24 375 -75 153
-306 275 -520 275 l-76 0 59 30 c326 166 463 565 306 895 -16 33 -50 88 -75
122 l-46 62 39 53 c22 29 160 220 307 423 147 204 275 376 283 383 36 28 40
10 7 -36 -44 -62 -90 -160 -110 -237 -21 -79 -21 -244 -1 -323 61 -232 231
-416 451 -485 l70 -22 -76 -6 c-107 -9 -204 -44 -256 -92 -38 -34 -30 -67 37
-142 33 -37 65 -84 71 -105 7 -23 9 -76 4 -145 -3 -61 -9 -636 -14 -1280 -8
-1306 -2 -1207 -81 -1357 -64 -124 -49 -192 52 -233 57 -22 205 -31 238 -13
49 26 51 56 58 692 l7 589 22 14 c21 14 23 12 45 -30 13 -25 113 -144 223
-264 111 -120 368 -400 572 -623 320 -351 379 -410 429 -437 114 -60 268 -71
319 -23 36 34 49 92 36 158 -22 112 -77 162 -175 162 -111 0 -104 -6 -541 504
-360 421 -474 559 -475 577 0 4 53 21 118 39 299 82 408 129 525 225 341 281
436 803 215 1180 -112 191 -423 413 -725 518 -110 39 -273 77 -327 77 -56 0
-50 15 11 28 168 35 341 174 428 344 60 116 78 203 73 342 -8 193 -62 310
-210 458 l-88 86 42 53 c55 70 174 187 207 203 52 26 120 39 135 27 17 -14 49
-3 42 14 -10 27 9 24 41 -7 l33 -32 51 17 c38 12 57 13 71 6 14 -7 23 -7 33 1
8 7 18 9 23 6 13 -8 79 12 96 29 11 11 12 23 6 45 -8 28 -6 32 16 40 34 13 39
13 54 -5 16 -19 40 -19 40 -1 0 21 19 30 34 17 7 -6 21 -8 30 -5 44 17 317
-212 432 -362 l59 -77 -25 -15 c-14 -9 -61 -52 -106 -96 -130 -130 -194 -284
-194 -472 0 -189 63 -339 199 -475 148 -148 302 -207 515 -196 251 12 456 147
570 375 47 93 66 176 66 297 0 168 -41 289 -141 418 -130 168 -328 260 -551
256 l-107 -3 -61 86 c-154 216 -353 388 -599 518 -100 52 -106 57 -119 99 -14
41 -13 57 7 180 12 75 39 251 61 390 22 140 45 258 51 262 6 3 66 27 135 53
l124 48 29 -31 c16 -17 36 -31 45 -31 9 0 64 19 123 41 164 63 223 80 244 69
26 -15 493 -324 653 -434 77 -52 152 -100 167 -107 21 -8 32 -24 45 -63 22
-67 30 -76 62 -70 22 4 30 0 44 -26 19 -33 70 -60 115 -60 14 0 45 8 67 18 23
10 56 24 74 30 17 7 46 18 63 24 27 11 32 11 41 -5 9 -18 11 -18 29 -1 10 9
19 25 19 35 0 20 4 21 183 44 65 8 123 17 128 20 16 11 10 54 -10 64 -21 11
-322 -23 -353 -40 -26 -13 -30 -12 -66 20 -36 34 -40 52 -14 77 9 10 22 45 27
78 l10 61 144 17 c145 18 171 26 171 58 0 41 -21 43 -193 21 -148 -20 -168
-20 -224 -7 -73 17 -84 23 -81 43 5 24 -27 40 -47 23 -10 -8 -25 -15 -34 -15
-9 -1 -26 -2 -38 -3 -12 -1 -35 -14 -52 -28 -23 -19 -31 -34 -31 -59 0 -27 -4
-34 -22 -37 -17 -2 -24 -11 -26 -30 -4 -32 -9 -34 -34 -11 -10 9 -183 125
-384 258 -200 132 -362 244 -358 248 11 11 14 57 4 57 -5 0 -7 6 -4 14 3 7 -2
20 -10 29 -9 9 -16 19 -16 24 -1 11 -66 66 -82 69 -7 1 -29 4 -48 7 -19 3 -47
2 -61 -2z m-749 -639 c0 -15 -21 -162 -47 -327 -54 -343 -55 -345 -156 -379
-63 -21 -93 -17 -78 12 9 17 112 300 222 609 42 117 59 142 59 85z m-1541
-1348 c1 -9 -39 -34 -55 -34 -3 0 4 12 15 26 12 15 21 34 22 43 0 12 2 11 9
-4 5 -11 9 -25 9 -31z m-1133 -361 c-2 -2 -17 18 -34 44 -30 45 -31 49 -14 61
15 12 19 7 34 -45 9 -31 16 -59 14 -60z m512 -15 c-12 -18 -77 -108 -144 -200
l-122 -167 -35 41 c-39 45 -38 57 6 105 19 21 19 24 3 47 -9 14 -16 33 -16 42
0 10 -7 25 -16 35 -15 17 -13 18 23 28 21 6 99 31 173 55 74 25 139 45 143 45
5 1 -2 -14 -15 -31z m-381 -130 c2 -29 1 -30 -12 -12 -18 24 -19 44 -2 44 6 0
13 -14 14 -32z m1535 -1104 c157 -32 302 -81 414 -137 222 -112 402 -282 464
-437 31 -77 38 -212 15 -305 -9 -38 -23 -102 -30 -142 -18 -101 -55 -173 -122
-245 -181 -191 -561 -327 -815 -291 -100 14 -143 36 -174 89 -35 60 -39 132
-25 455 7 151 18 437 25 636 11 329 14 364 31 382 24 28 66 27 217 -5z"/>
<path d="M6211 5309 c-85 -26 -172 -115 -210 -214 -10 -28 -24 -86 -30 -130
-6 -44 -13 -92 -16 -107 -3 -20 1 -30 14 -38 15 -7 36 0 102 38 148 85 206 99
276 65 39 -18 74 -65 106 -144 l22 -54 5 -962 c3 -529 8 -965 13 -969 7 -7
644 100 654 110 3 3 -15 42 -39 88 -58 110 -103 143 -191 142 -48 0 -79 -8
-135 -34 -40 -18 -74 -31 -77 -29 -2 3 -11 110 -20 239 -12 179 -15 353 -13
725 l3 490 28 57 c34 69 80 111 165 151 166 77 391 55 538 -54 72 -53 92 -89
104 -190 11 -91 26 -563 38 -1181 4 -213 11 -390 15 -394 10 -10 415 83 445
102 30 19 28 57 -4 123 -29 58 -72 91 -118 91 -15 0 -55 -7 -89 -16 -49 -13
-62 -13 -69 -2 -4 7 -7 319 -6 694 l3 681 30 49 c59 94 163 131 400 141 161 7
221 -7 277 -64 77 -79 73 -23 76 -915 2 -710 4 -798 18 -798 27 0 505 110 525
120 18 10 18 12 2 53 -44 116 -116 157 -238 137 -31 -5 -65 -12 -75 -15 -15
-5 -19 6 -30 71 -10 58 -12 167 -6 472 3 219 6 526 7 683 0 271 -1 289 -22
345 -28 74 -116 165 -206 212 -167 88 -419 98 -589 23 -64 -29 -114 -80 -204
-211 l-83 -120 -46 82 c-114 202 -254 290 -461 290 -112 -1 -220 -26 -329 -77
-113 -54 -122 -51 -193 61 -45 73 -110 133 -174 164 -51 25 -144 34 -193 19z"/>
<path d="M7756 1791 l-27 -28 91 -102 c50 -56 96 -99 101 -96 5 3 6 0 4 -7 -3
-8 12 -31 34 -52 l39 -38 35 28 c27 21 32 30 24 40 -7 6 -66 73 -131 148 -66
75 -125 136 -131 136 -6 0 -24 -13 -39 -29z"/>
<path d="M8089 1650 l-64 -58 24 -26 c14 -14 27 -26 30 -26 3 0 37 29 74 63
l68 63 -21 19 c-12 11 -27 20 -34 21 -7 1 -41 -24 -77 -56z m101 19 c0 -6 -4
-7 -10 -4 -5 3 -10 11 -10 16 0 6 5 7 10 4 6 -3 10 -11 10 -16z"/>
<path d="M2387 1633 c-5 -46 -3 -71 6 -82 10 -12 9 -13 -2 -7 -9 6 -12 4 -9
-5 6 -17 55 -46 63 -37 4 4 11 37 15 75 l9 68 -32 27 c-18 15 -35 28 -38 28
-3 0 -9 -30 -12 -67z"/>
<path d="M2347 1641 c-15 -22 -24 -47 -21 -56 5 -11 2 -14 -10 -9 -19 7 -22
-12 -3 -20 6 -3 3 -4 -8 -1 -16 3 -33 -14 -80 -77 -33 -45 -61 -85 -63 -89 -4
-10 49 -58 63 -58 10 0 111 134 129 171 7 14 4 22 -10 33 -18 13 -18 14 4 8
26 -6 29 5 5 23 -17 12 -17 13 -1 14 12 0 19 12 24 45 3 25 4 48 2 51 -3 2
-17 -13 -31 -35z"/>
<path d="M7548 1617 l-36 -32 55 -155 c59 -166 67 -185 88 -214 13 -17 15 -17
48 8 l35 27 -49 122 c-27 67 -54 130 -59 139 -18 31 -11 29 45 -13 l56 -42
-22 -23 c-19 -20 -20 -26 -9 -59 l12 -36 44 36 45 37 34 -27 35 -26 40 28 c22
15 38 32 37 37 -4 12 -338 226 -352 225 -5 0 -26 -14 -47 -32z"/>
<path d="M2362 1393 c-6 -64 -10 -118 -9 -120 5 -5 77 97 87 123 6 14 10 38
10 55 0 24 -6 31 -36 44 -20 8 -37 15 -39 15 -1 0 -7 -53 -13 -117z"/>
<path d="M7323 1465 c-71 -36 -77 -45 -50 -79 l23 -28 34 21 c44 26 54 26 80
-1 30 -32 25 -55 -20 -86 -21 -15 -39 -29 -40 -32 0 -3 11 -18 23 -34 l24 -29
46 32 c60 41 77 67 77 116 0 49 -29 98 -72 125 -43 26 -64 25 -125 -5z"/>
<path d="M2635 1449 c-33 -15 -88 -37 -121 -49 -55 -19 -66 -27 -103 -80 -23
-33 -40 -60 -38 -60 5 0 169 68 242 99 22 10 66 28 99 41 l58 23 -23 19 c-46
36 -52 36 -114 7z"/>
<path d="M7197 1387 l-37 -23 76 -119 c116 -183 138 -215 149 -215 6 1 23 11
39 24 l29 24 -37 58 c-20 33 -62 100 -94 151 -79 128 -79 128 -125 100z"/>
<path d="M2662 1367 c-67 -29 -78 -39 -138 -116 -35 -46 -64 -87 -64 -91 0 -4
15 -19 34 -34 l34 -25 83 112 c46 62 96 129 112 150 16 20 25 37 20 36 -4 0
-41 -15 -81 -32z"/>
<path d="M2800 1273 c-125 -112 -200 -188 -200 -204 0 -8 14 -22 31 -31 l31
-18 104 97 c57 53 104 100 104 105 0 4 4 8 8 8 7 0 -15 -114 -25 -129 -1 -2
-14 4 -29 14 -26 17 -27 17 -56 -12 l-29 -29 49 -27 c50 -27 50 -27 41 -65 -5
-20 -9 -40 -9 -44 0 -3 20 -18 45 -31 39 -22 45 -23 49 -9 7 22 66 376 66 394
0 11 -74 58 -90 58 -3 0 -43 -35 -90 -77z"/>
<path d="M7077 1311 c-15 -10 -30 -20 -33 -23 -6 -7 121 -219 141 -234 8 -6
12 -13 9 -16 -3 -3 8 -26 24 -51 l28 -45 37 21 c20 11 37 23 37 27 0 3 -28 52
-62 110 -33 58 -77 133 -97 167 -20 35 -40 63 -46 62 -5 0 -22 -8 -38 -18z"/>
<path d="M6948 1236 l-37 -22 53 -94 c48 -87 58 -99 125 -143 40 -27 74 -47
76 -45 5 4 -169 328 -175 327 -3 -1 -22 -11 -42 -23z"/>
<path d="M3117 1213 c-22 -35 -146 -358 -140 -363 5 -4 23 -13 41 -20 26 -10
36 -10 41 -1 4 6 38 89 76 183 38 94 71 166 73 160 2 -6 -2 -21 -9 -33 -6 -13
-8 -24 -3 -26 33 -12 89 -51 92 -64 1 -9 -6 -27 -17 -40 -20 -25 -21 -25 -109
2 -7 2 -19 -10 -27 -29 -14 -32 -14 -32 20 -46 44 -19 58 -45 44 -84 -6 -17
-9 -45 -7 -62 2 -27 9 -35 41 -47 21 -9 40 -14 42 -12 2 3 6 27 8 54 3 28 8
58 12 68 4 9 4 33 1 52 -6 30 -4 35 13 35 24 0 71 54 72 83 5 84 -14 102 -174
166 -88 35 -84 34 -90 24z"/>
<path d="M6747 1129 c-20 -11 -37 -21 -37 -23 0 -10 107 -69 123 -68 9 0 15
-3 12 -9 -13 -20 23 -8 44 15 l23 24 -43 27 c-24 15 -53 33 -64 40 -17 11 -27
10 -58 -6z m133 -69 c0 -5 -5 -10 -11 -10 -5 0 -7 5 -4 10 3 6 8 10 11 10 2 0
4 -4 4 -10z"/>
<path d="M6720 1076 c0 -4 38 -74 47 -85 5 -7 33 21 33 33 0 6 -18 21 -40 34
-22 12 -40 20 -40 18z"/>
<path d="M6896 1034 c-15 -14 -27 -27 -24 -29 2 -2 55 -35 118 -73 l115 -70
38 20 c22 11 37 22 34 24 -5 6 -247 154 -250 154 -1 0 -15 -12 -31 -26z"/>
<path d="M6513 1030 c-50 -22 -47 -6 -33 -209 11 -145 25 -221 42 -221 5 0 23
6 41 14 l33 13 -17 149 c-10 82 -16 150 -15 151 1 1 20 -22 42 -51 l41 -53
-28 -10 c-24 -9 -29 -17 -29 -45 0 -19 3 -37 6 -40 3 -4 27 3 54 14 l48 20 30
-32 29 -33 46 18 c26 10 47 20 47 22 0 8 -282 313 -289 312 -3 0 -25 -9 -48
-19z"/>
<path d="M3504 1021 c-37 -16 -64 -60 -64 -104 0 -35 6 -46 45 -84 25 -24 54
-43 65 -43 11 0 20 -6 20 -14 0 -7 9 -16 21 -19 20 -6 21 -6 3 -36 -15 -25
-22 -29 -45 -24 -21 4 -30 0 -38 -16 -7 -12 -9 -21 -5 -21 3 0 1 -6 -5 -14
-15 -18 5 -26 65 -26 45 0 53 7 32 28 -7 7 -8 12 -4 12 5 0 14 -7 20 -16 11
-14 14 -14 34 3 13 10 24 25 25 33 2 8 6 20 9 26 13 20 0 76 -22 99 -12 13
-44 38 -71 56 -72 49 -77 91 -12 93 21 1 30 8 37 28 5 15 7 30 3 34 -11 11
-91 14 -113 5z"/>
<path d="M6794 994 c-17 -24 -16 -27 36 -127 29 -56 56 -106 60 -110 7 -8 80
30 80 41 0 17 -106 197 -114 194 -5 -2 -13 3 -18 12 -13 23 -25 20 -44 -10z
m36 -8 c0 -2 -8 -10 -17 -17 -16 -13 -17 -12 -4 4 13 16 21 21 21 13z"/>
<path d="M3625 978 c-12 -30 -12 -35 6 -54 10 -11 19 -29 19 -40 0 -15 10 -24
37 -32 46 -14 53 -9 53 33 0 35 -42 95 -82 116 -16 8 -21 5 -33 -23z"/>
<path d="M6293 967 c-17 -7 -34 -15 -38 -18 -3 -4 -21 -63 -39 -130 l-32 -124
21 -70 22 -70 11 40 c6 22 29 110 51 195 22 86 43 164 47 173 7 20 1 20 -43 4z"/>
<path d="M6337 930 c-3 -8 -13 -44 -22 -79 -17 -63 -16 -64 11 -173 l28 -109
36 6 c19 4 40 10 46 13 8 5 -3 57 -35 167 -59 198 -57 194 -64 175z"/>
<path d="M3911 743 c-24 -98 -46 -185 -48 -194 -3 -11 8 -18 44 -26 33 -8 50
-8 54 -1 4 6 14 45 22 87 9 42 27 125 41 185 14 61 24 111 23 112 -1 1 -22 5
-47 9 l-45 7 -44 -179z"/>
<path d="M4056 878 c-12 -47 -8 -56 34 -63 69 -12 93 -59 46 -90 -17 -11 -35
-14 -66 -9 -46 7 -60 -2 -60 -43 0 -15 6 -23 18 -23 9 0 32 -9 50 -20 31 -19
32 -22 32 -85 0 -45 4 -65 13 -66 49 -5 97 -20 91 -30 -3 -5 0 -9 5 -9 14 0
14 6 0 33 -7 12 -12 35 -11 51 0 17 -4 36 -10 43 -7 9 -7 13 1 13 15 0 14 20
-4 54 -9 16 -14 30 -13 31 44 25 59 41 69 75 10 34 10 46 -4 75 -19 39 -50 58
-125 74 -29 6 -54 11 -56 11 -2 0 -6 -10 -10 -22z"/>
<path d="M5920 858 l-35 -10 55 -48 c30 -27 58 -46 64 -43 5 3 6 1 2 -5 -3 -6
-2 -13 4 -17 11 -7 70 21 70 34 0 11 -103 101 -115 100 -5 0 -26 -5 -45 -11z
m125 -88 c3 -5 1 -10 -4 -10 -6 0 -11 5 -11 10 0 6 2 10 4 10 3 0 8 -4 11 -10z"/>
<path d="M4360 808 c-26 -14 -57 -41 -74 -66 -26 -37 -30 -51 -30 -116 -1 -67
2 -78 29 -117 23 -32 44 -48 79 -62 47 -17 75 -15 46 3 -10 7 -11 10 -2 10 24
0 11 42 -24 76 -35 32 -36 36 -32 89 5 64 31 105 74 120 36 12 44 22 44 58 0
24 -4 27 -33 27 -18 0 -53 -10 -77 -22z m-30 -169 c0 -4 -7 -6 -15 -3 -8 4
-15 10 -15 15 0 4 7 6 15 3 8 -4 15 -10 15 -15z"/>
<path d="M4487 823 c-4 -3 -7 -21 -7 -38 0 -24 6 -35 26 -45 75 -41 68 -183
-13 -227 -28 -15 -63 -60 -63 -81 0 -2 24 -2 54 0 40 3 65 12 91 32 46 36 77
84 72 114 -3 12 -1 24 3 27 5 3 6 50 0 50 -1 0 -3 14 -4 32 -2 17 -13 45 -25
62 -31 44 -117 92 -134 74z m123 -173 c0 -5 -2 -10 -4 -10 -3 0 -8 5 -11 10
-3 6 -1 10 4 10 6 0 11 -4 11 -10z"/>
<path d="M3376 803 c-20 -51 10 -115 66 -144 l38 -19 13 32 c12 30 12 34 -9
51 -13 9 -24 29 -26 44 -2 20 -12 29 -40 39 -31 11 -37 10 -42 -3z"/>
<path d="M5522 813 c-20 -4 -23 -10 -20 -41 l3 -37 51 3 c37 3 55 -1 68 -13
43 -43 2 -83 -96 -94 -5 -1 -8 -18 -8 -39 l0 -38 51 1 c56 0 55 1 85 -79 l19
-49 62 -1 c33 -1 58 1 54 4 -9 7 -41 75 -41 89 0 6 -5 11 -11 11 -6 0 -9 7 -5
15 3 8 -6 28 -21 45 l-26 31 23 24 c42 45 22 137 -36 163 -24 12 -105 14 -152
5z"/>
<path d="M5909 770 c10 -33 20 -49 28 -46 7 3 13 1 13 -3 0 -5 -5 -11 -10 -13
-6 -2 3 -52 23 -123 37 -130 36 -130 103 -105 l22 9 -30 102 c-30 104 -59 152
-87 141 -10 -4 -13 -1 -9 10 6 14 -47 78 -63 78 -3 0 1 -23 10 -50z"/>
<path d="M4690 797 c0 -17 49 -186 91 -315 24 -72 35 -92 48 -90 13 3 17 18
19 85 2 72 -2 98 -34 200 -20 65 -37 119 -38 120 0 1 -20 4 -43 8 -33 5 -43 3
-43 -8z"/>
<path d="M5407 803 c-15 -4 -17 -13 -11 -81 3 -42 9 -131 12 -197 l7 -120 40
-3 c66 -4 68 0 56 129 -5 63 -13 151 -17 197 l-6 82 -32 -1 c-17 -1 -39 -3
-49 -6z"/>
<path d="M5232 793 l-53 -4 3 -37 c2 -22 8 -37 16 -36 6 1 50 2 97 3 83 1 85
2 85 25 0 59 -1 59 -148 49z"/>
<path d="M4961 768 c-5 -13 -27 -67 -50 -121 -33 -79 -42 -114 -45 -178 -4
-70 -3 -79 13 -79 10 0 25 15 35 38 22 46 146 349 146 356 0 3 -20 6 -45 6
-38 0 -47 -4 -54 -22z m-1 -122 c0 -3 -4 -8 -10 -11 -5 -3 -10 -1 -10 4 0 6 5
11 10 11 6 0 10 -2 10 -4z"/>
<path d="M5070 771 c0 -9 5 -22 12 -29 9 -9 9 -12 0 -12 -7 0 -12 -12 -12 -26
0 -17 4 -23 12 -18 8 5 9 2 2 -12 -13 -28 -12 -276 2 -281 7 -2 10 6 9 21 -2
14 3 27 10 30 10 3 12 0 8 -11 -5 -13 -2 -15 13 -10 18 7 18 6 2 -6 -21 -17
-13 -27 19 -27 23 0 23 2 23 100 0 90 -2 99 -17 94 -17 -5 -17 -5 0 6 15 10
17 25 16 105 l-1 95 -49 -2 c-39 0 -49 -4 -49 -17z m40 -5 c0 -11 -19 -15 -25
-6 -3 5 1 10 9 10 9 0 16 -2 16 -4z"/>
<path d="M6063 740 c-18 -8 -33 -18 -33 -21 0 -3 41 -43 91 -89 51 -47 89 -75
86 -64 -3 10 -13 44 -22 74 -11 41 -25 63 -53 85 -36 29 -38 30 -69 15z"/>
<path d="M5309 646 c-3 -3 -32 -6 -66 -7 l-61 -2 2 -36 c1 -39 -7 -37 129 -33
l58 2 -3 38 c-3 31 -7 37 -28 40 -14 2 -28 1 -31 -2z"/>
<path d="M5300 472 c-70 -2 -88 -6 -102 -22 -18 -22 -13 -60 7 -60 8 0 11 10
9 28 -4 26 -3 26 4 2 7 -22 14 -25 61 -28 30 -2 69 -1 87 3 31 5 34 9 34 40 0
19 -3 35 -7 37 -5 2 -46 2 -93 0z"/>
</g>
</svg>
